<svg width="1787" height="381" viewBox="0 0 1787 381" fill="none" xmlns="http://www.w3.org/2000/svg">
<path d="M421.56 0H431.06L435.31 0.25C435.565 0.265308 435.804 0.377385 435.979 0.563288C436.153 0.749192 436.25 0.994859 436.25 1.25V3.07C436.25 3.20302 436.223 3.33471 436.171 3.45736C436.119 3.58001 436.043 3.69115 435.947 3.78428C435.851 3.8774 435.738 3.95064 435.613 3.9997C435.488 4.04876 435.354 4.07266 435.22 4.07L422.18 3.74C421.932 3.73095 421.697 3.6312 421.518 3.45973C421.339 3.28825 421.229 3.05701 421.21 2.81C421.137 1.86333 421.253 0.926667 421.56 0Z" fill="#0F70E5"/>
<path d="M412.877 0.13292L399.217 0.872718C398.798 0.895417 398.477 1.25358 398.499 1.67271L398.623 3.94937C398.645 4.36849 399.004 4.68986 399.423 4.66716L413.083 3.92736C413.502 3.90466 413.823 3.54649 413.801 3.12737L413.677 0.850708C413.655 0.431586 413.296 0.110221 412.877 0.13292Z" fill="#0F70E5"/>
<path d="M458.43 2.28623L444.427 0.814471C444.153 0.785607 443.907 0.984838 443.878 1.25947L443.585 4.04413C443.556 4.31876 443.755 4.56479 444.03 4.59365L458.033 6.06542C458.307 6.09428 458.554 5.89505 458.582 5.62042L458.875 2.83576C458.904 2.56113 458.705 2.3151 458.43 2.28623Z" fill="#0F70E5"/>
<path d="M390.213 1.7126L376.586 3.31332C376.23 3.35521 375.975 3.67819 376.017 4.03472L376.306 6.49778C376.348 6.85432 376.671 7.10939 377.027 7.06751L390.654 5.46679C391.01 5.4249 391.265 5.10192 391.223 4.74539L390.934 2.28233C390.892 1.92579 390.569 1.67072 390.213 1.7126Z" fill="#0F70E5"/>
<path d="M480.758 6.31027L467.084 3.60265C466.77 3.54043 466.464 3.74472 466.402 4.05894L465.885 6.66829C465.823 6.98251 466.028 7.28768 466.342 7.34989L480.016 10.0575C480.33 10.1197 480.636 9.91545 480.698 9.60122L481.215 6.99188C481.277 6.67766 481.072 6.37249 480.758 6.31027Z" fill="#0F70E5"/>
<path d="M367.877 4.74552L354.063 7.2559C353.781 7.30725 353.593 7.57794 353.645 7.8605L354.138 10.576C354.19 10.8586 354.46 11.046 354.743 10.9947L368.557 8.48428C368.839 8.43293 369.027 8.16224 368.975 7.87968L368.482 5.16416C368.43 4.8816 368.16 4.69417 367.877 4.74552Z" fill="#0F70E5"/>
<path d="M502.449 12.3625L489.39 8.4942C489.004 8.37969 488.597 8.60024 488.483 8.9868L487.818 11.2304C487.704 11.617 487.924 12.0232 488.311 12.1377L501.37 16.006C501.757 16.1205 502.163 15.9 502.277 15.5134L502.942 13.2698C503.056 12.8832 502.836 12.477 502.449 12.3625Z" fill="#0F70E5"/>
<path d="M345.373 9.18991L332.109 12.3741C331.75 12.4605 331.528 12.8222 331.614 13.182L332.179 15.5351C332.266 15.8949 332.627 16.1166 332.987 16.0302L346.25 12.846C346.61 12.7596 346.832 12.3979 346.745 12.0381L346.181 9.68499C346.094 9.32519 345.732 9.10353 345.373 9.18991Z" fill="#0F70E5"/>
<path d="M323.381 14.7594L310.226 18.6561C309.887 18.7565 309.693 19.1126 309.794 19.4515L310.504 21.8486C310.604 22.1875 310.96 22.3808 311.299 22.2805L324.454 18.3838C324.793 18.2834 324.987 17.9273 324.886 17.5884L324.176 15.1913C324.076 14.8524 323.72 14.659 323.381 14.7594Z" fill="#0F70E5"/>
<path d="M523.794 20.5853L510.971 15.4306C510.643 15.2988 510.27 15.4578 510.138 15.7857L509.191 18.1424C509.059 18.4704 509.218 18.8431 509.546 18.9749L522.369 24.1296C522.697 24.2615 523.07 24.1025 523.201 23.7745L524.149 21.4178C524.281 21.0899 524.122 20.7171 523.794 20.5853Z" fill="#0F70E5"/>
<path d="M301.69 21.4097L288.612 25.9384C288.299 26.0469 288.133 26.3886 288.242 26.7017L289.086 29.1397C289.194 29.4528 289.536 29.6188 289.849 29.5103L302.927 24.9816C303.24 24.8732 303.406 24.5315 303.298 24.2183L302.454 21.7804C302.345 21.4672 302.004 21.3013 301.69 21.4097Z" fill="#0F70E5"/>
<path d="M544.531 29.7204L532.015 24.1482C531.657 23.9887 531.237 24.1498 531.078 24.508L530.11 26.6822C529.95 27.0405 530.111 27.4601 530.469 27.6196L542.985 33.1919C543.343 33.3514 543.763 33.1903 543.922 32.8321L544.89 30.6579C545.05 30.2996 544.889 29.8799 544.531 29.7204Z" fill="#0F70E5"/>
<path d="M280.252 28.9713L267.309 34.0956C267.022 34.2095 266.881 34.5349 266.995 34.8224L267.981 37.3142C268.095 37.6018 268.421 37.7426 268.708 37.6288L281.651 32.5045C281.938 32.3906 282.079 32.0652 281.965 31.7776L280.979 29.2858C280.865 28.9983 280.539 28.8575 280.252 28.9713Z" fill="#0F70E5"/>
<path d="M565.017 39.804L552.624 33.5981C552.323 33.4472 551.957 33.5692 551.806 33.8704L550.651 36.1773C550.5 36.4785 550.622 36.845 550.923 36.9959L563.316 43.2018C563.617 43.3527 563.984 43.2307 564.134 42.9295L565.29 40.6226C565.44 40.3214 565.319 39.9549 565.017 39.804Z" fill="#0F70E5"/>
<path d="M259.025 37.4613L246.47 42.8943C246.11 43.05 245.945 43.468 246.1 43.8279L247.061 46.0488C247.217 46.4087 247.635 46.5742 247.995 46.4185L260.55 40.9855C260.91 40.8298 261.075 40.4118 260.92 40.0519L259.958 37.8309C259.803 37.4711 259.385 37.3056 259.025 37.4613Z" fill="#0F70E5"/>
<path d="M585.09 50.4216L572.875 43.872C572.549 43.6972 572.143 43.8198 571.968 44.1459L570.796 46.3315C570.621 46.6576 570.744 47.0637 571.07 47.2386L583.285 53.7882C583.611 53.963 584.017 53.8404 584.192 53.5143L585.364 51.3287C585.539 51.0026 585.416 50.5964 585.09 50.4216Z" fill="#0F70E5"/>
<path d="M238.155 46.6945L225.978 52.4765C225.564 52.6731 225.388 53.1682 225.584 53.5823L226.519 55.5516C226.716 55.9656 227.211 56.1419 227.625 55.9453L239.802 50.1633C240.216 49.9666 240.392 49.4716 240.196 49.0575L239.261 47.0882C239.064 46.6741 238.569 46.4978 238.155 46.6945Z" fill="#0F70E5"/>
<path d="M604.899 61.7368L592.861 54.7868C592.574 54.6211 592.207 54.7195 592.042 55.0064L590.762 57.2235C590.596 57.5104 590.694 57.8774 590.981 58.0431L603.019 64.9931C603.306 65.1588 603.673 65.0604 603.839 64.7735L605.119 62.5564C605.284 62.2695 605.186 61.9025 604.899 61.7368Z" fill="#0F70E5"/>
<path d="M217.719 56.6063L205.733 62.687C205.334 62.8894 205.175 63.3769 205.377 63.7758L206.373 65.7378C206.575 66.1367 207.062 66.2961 207.461 66.0937L219.447 60.0129C219.846 59.8105 220.005 59.3231 219.803 58.9241L218.808 56.9622C218.605 56.5632 218.118 56.4039 217.719 56.6063Z" fill="#0F70E5"/>
<path d="M624.438 73.3898L612.489 66.2101C612.21 66.0423 611.847 66.1327 611.679 66.412L610.34 68.6406C610.172 68.9199 610.263 69.2824 610.542 69.4502L622.491 76.6298C622.77 76.7977 623.133 76.7073 623.301 76.428L624.64 74.1994C624.807 73.92 624.717 73.5576 624.438 73.3898Z" fill="#0F70E5"/>
<path d="M197.542 67.0884L185.683 73.5811C185.286 73.7986 185.14 74.2969 185.358 74.6941L186.405 76.6063C186.622 77.0035 187.121 77.1492 187.518 76.9318L199.377 70.4391C199.774 70.2217 199.92 69.7233 199.702 69.3261L198.655 67.4139C198.438 67.0167 197.94 66.871 197.542 67.0884Z" fill="#0F70E5"/>
<path d="M177.66 78.146L165.894 84.9665C165.531 85.177 165.407 85.642 165.618 86.0052L166.761 87.9777C166.972 88.3409 167.437 88.4646 167.8 88.2541L179.566 81.4335C179.929 81.223 180.053 80.758 179.842 80.3949L178.699 78.4223C178.488 78.0592 178.023 77.9355 177.66 78.146Z" fill="#0F70E5"/>
<path d="M643.507 85.3386L632.118 78.1661C631.72 77.9159 631.196 78.0352 630.945 78.4324L629.826 80.2094C629.576 80.6066 629.695 81.1315 630.093 81.3816L641.482 88.5541C641.88 88.8043 642.404 88.685 642.655 88.2878L643.774 86.5108C644.024 86.1136 643.905 85.5887 643.507 85.3386Z" fill="#0F70E5"/>
<path d="M157.99 89.7116L146.508 96.7749C146.123 97.0122 146.002 97.5173 146.24 97.903L147.382 99.7598C147.619 100.145 148.124 100.266 148.51 100.029L159.991 92.9652C160.377 92.7279 160.497 92.2228 160.26 91.8371L159.118 89.9803C158.881 89.5946 158.375 89.4743 157.99 89.7116Z" fill="#0F70E5"/>
<path d="M662.608 97.7449L651.151 90.3051C650.795 90.0735 650.318 90.1749 650.086 90.5315L648.866 92.4101C648.635 92.7668 648.736 93.2437 649.093 93.4753L660.549 100.915C660.905 101.147 661.382 101.045 661.614 100.689L662.834 98.81C663.066 98.4534 662.964 97.9765 662.608 97.7449Z" fill="#0F70E5"/>
<path d="M138.843 101.72L127.36 109.12C127.031 109.332 126.936 109.771 127.148 110.101L128.416 112.068C128.628 112.397 129.068 112.492 129.397 112.28L140.879 104.88C141.209 104.668 141.304 104.229 141.092 103.899L139.824 101.932C139.612 101.602 139.172 101.507 138.843 101.72Z" fill="#0F70E5"/>
<path d="M681.587 110.531L670.143 102.783C669.851 102.584 669.453 102.661 669.254 102.954L667.842 105.04C667.643 105.333 667.72 105.731 668.013 105.929L679.457 113.677C679.749 113.875 680.147 113.799 680.345 113.506L681.758 111.419C681.956 111.127 681.88 110.729 681.587 110.531Z" fill="#0F70E5"/>
<path d="M119.801 114.136L108.443 121.797C108.109 122.023 108.021 122.476 108.246 122.811L109.566 124.767C109.791 125.101 110.245 125.189 110.579 124.964L121.937 117.303C122.271 117.078 122.359 116.624 122.134 116.29L120.814 114.333C120.589 113.999 120.135 113.911 119.801 114.136Z" fill="#0F70E5"/>
<path d="M1750.54 145.75L1747.07 143.63C1746.93 143.543 1746.81 143.421 1746.73 143.277C1746.64 143.133 1746.6 142.97 1746.59 142.804C1746.59 142.638 1746.62 142.474 1746.7 142.326C1746.77 142.179 1746.88 142.053 1747.02 141.96L1780.61 118.69C1781.21 118.277 1781.15 118.03 1780.43 117.95C1780.26 117.93 1780.05 117.98 1779.8 118.1C1765.86 124.953 1751.86 131.67 1737.79 138.25L1723.32 129.75C1721.85 128.89 1721.95 128.277 1723.62 127.91L1785.69 114.32C1786.98 114.04 1787.26 114.447 1786.53 115.54L1762.72 151.45C1762.58 151.66 1762.37 151.809 1762.12 151.868C1761.88 151.928 1761.62 151.893 1761.4 151.77L1750.54 145.75Z" fill="#2988FB"/>
<path d="M700.348 123.473L688.997 115.554C688.703 115.349 688.298 115.421 688.092 115.715L686.651 117.782C686.445 118.077 686.517 118.482 686.812 118.687L698.163 126.606C698.457 126.811 698.862 126.739 699.068 126.445L700.509 124.378C700.715 124.083 700.643 123.678 700.348 123.473Z" fill="#0F70E5"/>
<path d="M1750.54 145.75L1743.08 152.25C1742.95 152.361 1742.8 152.438 1742.63 152.473C1742.47 152.508 1742.3 152.501 1742.13 152.452C1741.97 152.403 1741.83 152.314 1741.71 152.193C1741.59 152.072 1741.5 151.923 1741.46 151.76L1737.79 138.25C1751.86 131.67 1765.86 124.953 1779.8 118.1C1780.05 117.98 1780.26 117.93 1780.43 117.95C1781.15 118.03 1781.21 118.277 1780.61 118.69L1747.02 141.96C1746.88 142.053 1746.77 142.179 1746.7 142.326C1746.62 142.474 1746.59 142.638 1746.59 142.804C1746.6 142.97 1746.64 143.133 1746.73 143.277C1746.81 143.421 1746.93 143.543 1747.07 143.63L1750.54 145.75Z" fill="#0F70E5"/>
<path d="M101.085 126.937L89.8173 134.974C89.525 135.182 89.4571 135.588 89.6655 135.88L91.1289 137.932C91.3374 138.224 91.7433 138.292 92.0355 138.084L103.303 130.047C103.595 129.838 103.663 129.432 103.455 129.14L101.991 127.088C101.783 126.796 101.377 126.728 101.085 126.937Z" fill="#0F70E5"/>
<path d="M718.772 136.364L707.793 128.647C707.391 128.365 706.835 128.462 706.553 128.864L705.391 130.516C705.109 130.918 705.206 131.474 705.608 131.756L716.587 139.473C716.989 139.755 717.545 139.659 717.827 139.256L718.989 137.604C719.271 137.202 719.174 136.646 718.772 136.364Z" fill="#0F70E5"/>
<path d="M82.596 140.246L71.5529 148.388C71.2284 148.627 71.1593 149.084 71.3985 149.408L72.7634 151.26C73.0026 151.584 73.4597 151.653 73.7842 151.414L84.8273 143.272C85.1518 143.033 85.2209 142.576 84.9817 142.252L83.6168 140.4C83.3776 140.076 82.9206 140.007 82.596 140.246Z" fill="#0F70E5"/>
<path d="M737.278 149.514L726.369 141.733C725.964 141.444 725.402 141.538 725.113 141.943L723.952 143.571C723.663 143.976 723.757 144.538 724.162 144.826L735.071 152.608C735.476 152.896 736.038 152.802 736.327 152.398L737.488 150.769C737.777 150.365 737.682 149.803 737.278 149.514Z" fill="#0F70E5"/>
<path d="M64.2446 153.865L53.5434 162.225C53.1996 162.494 53.1387 162.99 53.4073 163.334L54.7864 165.099C55.055 165.443 55.5514 165.504 55.8953 165.235L66.5964 156.875C66.9403 156.606 67.0012 156.11 66.7326 155.766L65.3535 154.001C65.0849 153.657 64.5884 153.596 64.2446 153.865Z" fill="#0F70E5"/>
<path d="M755.828 162.89L744.874 154.932C744.476 154.643 743.92 154.731 743.631 155.128L742.455 156.747C742.166 157.144 742.254 157.701 742.652 157.99L753.606 165.948C754.004 166.237 754.56 166.149 754.849 165.751L756.025 164.133C756.314 163.736 756.226 163.179 755.828 162.89Z" fill="#0F70E5"/>
<path d="M1731.3 156.452L1720.38 164.214C1720.01 164.477 1719.93 164.988 1720.19 165.358L1721.45 167.135C1721.71 167.504 1722.23 167.59 1722.6 167.328L1733.52 159.566C1733.89 159.303 1733.97 158.791 1733.71 158.422L1732.45 156.645C1732.19 156.276 1731.67 156.189 1731.3 156.452Z" fill="#0F70E5"/>
<path d="M46.2947 167.903L35.8516 176.3C35.4728 176.604 35.4126 177.158 35.7172 177.537L37.008 179.142C37.3125 179.521 37.8664 179.581 38.2452 179.277L48.6883 170.88C49.0671 170.576 49.1273 170.022 48.8227 169.643L47.5319 168.038C47.2274 167.659 46.6735 167.599 46.2947 167.903Z" fill="#0F70E5"/>
<path d="M774.471 176.254L763.024 168.089C762.777 167.913 762.434 167.97 762.257 168.217L760.701 170.399C760.524 170.646 760.582 170.99 760.829 171.166L772.276 179.331C772.523 179.507 772.866 179.45 773.043 179.203L774.599 177.021C774.776 176.773 774.718 176.43 774.471 176.254Z" fill="#0F70E5"/>
<path d="M1713.19 169.731L1701.96 178.066C1701.68 178.274 1701.63 178.668 1701.83 178.948L1703.31 180.939C1703.52 181.218 1703.91 181.276 1704.19 181.069L1715.42 172.734C1715.7 172.526 1715.75 172.132 1715.55 171.852L1714.07 169.861C1713.86 169.582 1713.47 169.524 1713.19 169.731Z" fill="#0F70E5"/>
<path d="M792.73 189.405L781.778 181.477C781.42 181.218 780.92 181.298 780.661 181.656L779.371 183.438C779.112 183.796 779.192 184.296 779.55 184.555L790.502 192.483C790.86 192.742 791.36 192.662 791.619 192.304L792.909 190.522C793.168 190.164 793.088 189.664 792.73 189.405Z" fill="#0F70E5"/>
<path d="M28.6542 182.188L18.282 190.984C17.9492 191.266 17.9082 191.765 18.1904 192.097L19.6522 193.821C19.9343 194.154 20.4329 194.195 20.7656 193.913L31.1379 185.116C31.4707 184.834 31.5117 184.335 31.2295 184.003L29.7677 182.279C29.4855 181.946 28.987 181.905 28.6542 182.188Z" fill="#0F70E5"/>
<path d="M1694.99 183.32L1683.78 191.737C1683.53 191.923 1683.48 192.274 1683.67 192.522L1685.26 194.649C1685.45 194.896 1685.8 194.946 1686.05 194.76L1697.26 186.342C1697.51 186.157 1697.56 185.806 1697.37 185.558L1695.78 183.431C1695.59 183.184 1695.24 183.134 1694.99 183.32Z" fill="#0F70E5"/>
<path d="M811.236 202.707L800.284 194.779C799.899 194.5 799.362 194.587 799.083 194.971L797.852 196.672C797.573 197.057 797.659 197.595 798.044 197.873L808.996 205.801C809.381 206.08 809.918 205.993 810.197 205.609L811.428 203.908C811.707 203.523 811.621 202.985 811.236 202.707Z" fill="#0F70E5"/>
<path d="M11.4639 196.906L1.14153 205.974C0.86354 206.219 0.836164 206.642 1.08038 206.92L2.69079 208.753C2.93501 209.031 3.35835 209.058 3.63634 208.814L13.9587 199.746C14.2367 199.501 14.2641 199.078 14.0199 198.8L12.4094 196.967C12.1652 196.689 11.7419 196.662 11.4639 196.906Z" fill="#0F70E5"/>
<path d="M1676.76 197.015L1665.61 205.354C1665.34 205.556 1665.29 205.938 1665.49 206.208L1667.01 208.242C1667.21 208.511 1667.59 208.566 1667.86 208.365L1679.01 200.026C1679.28 199.824 1679.33 199.442 1679.13 199.172L1677.61 197.138C1677.41 196.869 1677.03 196.814 1676.76 197.015Z" fill="#0F70E5"/>
<path d="M829.841 215.912L818.692 208.019C818.332 207.764 817.832 207.849 817.577 208.21L816.329 209.972C816.074 210.333 816.159 210.832 816.519 211.088L827.668 218.981C828.029 219.236 828.528 219.151 828.783 218.791L830.031 217.028C830.287 216.667 830.201 216.168 829.841 215.912Z" fill="#0F70E5"/>
<path d="M1658.46 210.677L1647.44 218.857C1647.14 219.081 1647.08 219.507 1647.3 219.808L1648.77 221.783C1648.99 222.085 1649.42 222.147 1649.72 221.924L1660.74 213.743C1661.04 213.519 1661.1 213.093 1660.88 212.792L1659.41 210.817C1659.19 210.516 1658.76 210.453 1658.46 210.677Z" fill="#0F70E5"/>
<path d="M848.358 228.809L837.42 221.207C836.994 220.911 836.408 221.016 836.111 221.443L835.027 223.003C834.731 223.429 834.836 224.015 835.263 224.311L846.2 231.913C846.627 232.209 847.212 232.104 847.509 231.678L848.593 230.117C848.889 229.691 848.784 229.105 848.358 228.809Z" fill="#0F70E5"/>
<path d="M1640.15 224.266L1629.17 232.36C1628.82 232.616 1628.75 233.104 1629 233.451L1630.34 235.27C1630.6 235.616 1631.09 235.69 1631.43 235.435L1642.41 227.34C1642.76 227.085 1642.83 226.596 1642.58 226.25L1641.24 224.431C1640.98 224.084 1640.49 224.01 1640.15 224.266Z" fill="#0F70E5"/>
<path d="M867.12 241.767L855.961 234.098C855.583 233.838 855.067 233.934 854.807 234.312L853.606 236.059C853.347 236.437 853.442 236.953 853.82 237.213L864.979 244.882C865.357 245.142 865.873 245.046 866.133 244.668L867.334 242.921C867.593 242.543 867.498 242.027 867.12 241.767Z" fill="#0F70E5"/>
<path d="M1621.92 237.636L1610.61 245.822C1610.34 246.013 1610.28 246.382 1610.48 246.646L1612 248.752C1612.19 249.016 1612.56 249.075 1612.82 248.884L1624.13 240.698C1624.4 240.507 1624.46 240.138 1624.26 239.874L1622.74 237.768C1622.55 237.504 1622.18 237.445 1621.92 237.636Z" fill="#0F70E5"/>
<path d="M886.098 254.517L874.71 246.865C874.38 246.643 873.933 246.731 873.711 247.061L872.406 249.003C872.184 249.334 872.272 249.781 872.602 250.003L883.99 257.655C884.32 257.877 884.767 257.789 884.989 257.459L886.294 255.517C886.516 255.187 886.428 254.739 886.098 254.517Z" fill="#0F70E5"/>
<path d="M1603.34 250.978L1592.28 258.753C1591.91 259.01 1591.82 259.515 1592.08 259.881L1593.33 261.665C1593.59 262.031 1594.1 262.119 1594.46 261.861L1605.52 254.087C1605.89 253.83 1605.98 253.325 1605.72 252.959L1604.47 251.175C1604.21 250.809 1603.7 250.721 1603.34 250.978Z" fill="#0F70E5"/>
<path d="M905.231 266.919L893.695 259.456C893.342 259.228 892.872 259.329 892.644 259.682L891.384 261.629C891.156 261.982 891.257 262.452 891.609 262.68L903.145 270.144C903.498 270.372 903.968 270.271 904.196 269.918L905.456 267.97C905.684 267.618 905.584 267.147 905.231 266.919Z" fill="#0F70E5"/>
<path d="M1584.78 263.926L1573.37 271.62C1573.03 271.849 1572.94 272.309 1573.17 272.648L1574.46 274.554C1574.68 274.893 1575.14 274.983 1575.48 274.754L1586.89 267.06C1587.23 266.831 1587.32 266.371 1587.09 266.032L1585.8 264.126C1585.58 263.787 1585.12 263.697 1584.78 263.926Z" fill="#0F70E5"/>
<path d="M924.51 279.117L912.718 271.72C912.414 271.53 912.013 271.622 911.822 271.926L910.504 274.026C910.314 274.331 910.406 274.732 910.71 274.923L922.502 282.32C922.806 282.51 923.207 282.418 923.398 282.114L924.716 280.014C924.906 279.709 924.814 279.308 924.51 279.117Z" fill="#0F70E5"/>
<path d="M1565.85 276.575L1554.26 284.071C1553.94 284.275 1553.85 284.696 1554.06 285.011L1555.37 287.043C1555.58 287.359 1556 287.449 1556.31 287.245L1567.9 279.749C1568.22 279.545 1568.31 279.124 1568.1 278.809L1566.79 276.777C1566.58 276.462 1566.16 276.371 1565.85 276.575Z" fill="#0F70E5"/>
<path d="M943.844 290.821L932.037 283.755C931.677 283.539 931.21 283.657 930.995 284.017L929.834 285.956C929.619 286.316 929.736 286.783 930.096 286.999L941.903 294.065C942.263 294.28 942.73 294.163 942.945 293.803L944.106 291.864C944.322 291.504 944.204 291.037 943.844 290.821Z" fill="#0F70E5"/>
<path d="M1546.72 288.807L1534.91 295.956C1534.56 296.168 1534.45 296.623 1534.66 296.973L1535.85 298.923C1536.06 299.272 1536.51 299.384 1536.86 299.172L1548.67 292.024C1549.02 291.812 1549.13 291.357 1548.92 291.007L1547.73 289.057C1547.52 288.708 1547.07 288.596 1546.72 288.807Z" fill="#0F70E5"/>
<path d="M963.582 302.179L951.635 295.392C951.275 295.187 950.817 295.313 950.613 295.674L949.496 297.639C949.292 297.999 949.418 298.457 949.778 298.661L961.725 305.448C962.085 305.653 962.543 305.526 962.747 305.166L963.864 303.201C964.068 302.841 963.942 302.383 963.582 302.179Z" fill="#0F70E5"/>
<path d="M1527.24 300.449L1515.12 307.365C1514.81 307.54 1514.7 307.931 1514.88 308.238L1516.11 310.393C1516.28 310.7 1516.67 310.806 1516.98 310.631L1529.1 303.715C1529.41 303.54 1529.52 303.149 1529.34 302.842L1528.11 300.688C1527.94 300.38 1527.55 300.274 1527.24 300.449Z" fill="#0F70E5"/>
<path d="M983.65 313.122L971.276 306.487C970.994 306.336 970.642 306.442 970.491 306.724L969.253 309.033C969.102 309.315 969.208 309.667 969.49 309.818L981.864 316.453C982.146 316.604 982.497 316.498 982.649 316.216L983.887 313.907C984.038 313.625 983.932 313.273 983.65 313.122Z" fill="#0F70E5"/>
<path d="M1507.13 311.599L1495.27 317.798C1494.81 318.041 1494.63 318.615 1494.87 319.08L1495.77 320.799C1496.01 321.264 1496.59 321.444 1497.05 321.201L1508.91 315.002C1509.37 314.759 1509.55 314.185 1509.31 313.72L1508.41 312.001C1508.17 311.536 1507.59 311.356 1507.13 311.599Z" fill="#0F70E5"/>
<path d="M1003.83 323.427L991.586 317.189C991.241 317.014 990.82 317.151 990.644 317.495L989.546 319.652C989.37 319.996 989.507 320.418 989.852 320.593L1002.09 326.831C1002.44 327.006 1002.86 326.869 1003.04 326.525L1004.13 324.369C1004.31 324.024 1004.17 323.603 1003.83 323.427Z" fill="#0F70E5"/>
<path d="M1487 321.983L1474.71 327.713C1474.27 327.921 1474.07 328.451 1474.28 328.896L1475.14 330.727C1475.34 331.172 1475.87 331.365 1476.32 331.157L1488.61 325.427C1489.05 325.219 1489.25 324.689 1489.04 324.244L1488.18 322.413C1487.98 321.968 1487.45 321.775 1487 321.983Z" fill="#0F70E5"/>
<path d="M1024.33 333.02L1011.96 327.328C1011.55 327.139 1011.06 327.319 1010.87 327.731L1009.97 329.693C1009.78 330.104 1009.96 330.591 1010.37 330.781L1022.74 336.472C1023.15 336.661 1023.64 336.481 1023.83 336.07L1024.73 334.107C1024.92 333.696 1024.74 333.209 1024.33 333.02Z" fill="#0F70E5"/>
<path d="M1466.46 331.415L1453.73 336.74C1453.38 336.885 1453.22 337.283 1453.37 337.63L1454.31 339.881C1454.45 340.227 1454.85 340.391 1455.2 340.246L1467.93 334.92C1468.28 334.775 1468.44 334.377 1468.29 334.03L1467.35 331.779C1467.21 331.433 1466.81 331.27 1466.46 331.415Z" fill="#0F70E5"/>
<path d="M1045.06 341.997L1032.81 336.771C1032.3 336.556 1031.72 336.79 1031.51 337.293L1030.78 339.004C1030.56 339.507 1030.8 340.089 1031.3 340.303L1043.55 345.529C1044.06 345.744 1044.64 345.51 1044.85 345.007L1045.58 343.296C1045.8 342.793 1045.56 342.211 1045.06 341.997Z" fill="#0F70E5"/>
<path d="M1445.4 340.095L1432.51 344.839C1432.14 344.973 1431.96 345.375 1432.09 345.738L1432.92 347.99C1433.05 348.353 1433.46 348.539 1433.82 348.405L1446.71 343.661C1447.08 343.527 1447.26 343.125 1447.13 342.762L1446.3 340.51C1446.17 340.147 1445.76 339.961 1445.4 340.095Z" fill="#0F70E5"/>
<path d="M1066.66 350.312L1053.44 345.367C1053.16 345.263 1052.85 345.405 1052.74 345.684L1051.8 348.213C1051.69 348.492 1051.84 348.804 1052.12 348.908L1065.34 353.853C1065.62 353.957 1065.93 353.816 1066.04 353.536L1066.98 351.007C1067.09 350.728 1066.94 350.417 1066.66 350.312Z" fill="#0F70E5"/>
<path d="M1424.09 347.795L1410.87 351.985C1410.51 352.102 1410.3 352.496 1410.42 352.864L1411.16 355.19C1411.27 355.559 1411.67 355.763 1412.03 355.646L1425.25 351.455C1425.61 351.338 1425.82 350.944 1425.7 350.576L1424.96 348.25C1424.85 347.882 1424.45 347.678 1424.09 347.795Z" fill="#0F70E5"/>
<path d="M1088.16 357.627L1074.82 353.242C1074.51 353.14 1074.18 353.309 1074.08 353.618L1073.26 356.088C1073.16 356.398 1073.33 356.731 1073.64 356.833L1086.98 361.218C1087.29 361.32 1087.62 361.151 1087.72 360.842L1088.54 358.372C1088.64 358.062 1088.47 357.729 1088.16 357.627Z" fill="#0F70E5"/>
<path d="M1402.4 354.513L1388.99 358.204C1388.66 358.296 1388.46 358.643 1388.55 358.978L1389.23 361.427C1389.32 361.763 1389.67 361.96 1390 361.867L1403.4 358.176C1403.74 358.084 1403.94 357.737 1403.85 357.401L1403.17 354.953C1403.08 354.617 1402.73 354.42 1402.4 354.513Z" fill="#0F70E5"/>
<path d="M1110.14 363.937L1096.38 360.121C1096.12 360.049 1095.85 360.201 1095.77 360.462L1095.02 363.18C1094.95 363.44 1095.1 363.71 1095.36 363.783L1109.12 367.599C1109.38 367.671 1109.65 367.518 1109.73 367.258L1110.48 364.54C1110.55 364.279 1110.4 364.009 1110.14 363.937Z" fill="#0F70E5"/>
<path d="M1380.37 360.363L1366.85 363.41C1366.48 363.494 1366.25 363.863 1366.33 364.235L1366.86 366.576C1366.94 366.948 1367.31 367.181 1367.69 367.097L1381.21 364.05C1381.58 363.967 1381.81 363.597 1381.73 363.225L1381.2 360.884C1381.12 360.512 1380.75 360.279 1380.37 360.363Z" fill="#0F70E5"/>
<path d="M1358.16 365.215L1344.58 367.707C1344.21 367.774 1343.97 368.129 1344.04 368.498L1344.47 370.878C1344.54 371.248 1344.9 371.492 1345.26 371.424L1358.84 368.933C1359.21 368.866 1359.45 368.511 1359.38 368.142L1358.95 365.762C1358.88 365.392 1358.52 365.148 1358.16 365.215Z" fill="#0F70E5"/>
<path d="M1132.1 369.036L1118.49 365.995C1118.17 365.923 1117.85 366.127 1117.78 366.45L1117.21 368.987C1117.14 369.311 1117.34 369.632 1117.66 369.704L1131.27 372.745C1131.59 372.817 1131.91 372.614 1131.98 372.29L1132.55 369.753C1132.62 369.429 1132.42 369.109 1132.1 369.036Z" fill="#0F70E5"/>
<path d="M1335.93 369.144L1321.97 371.155C1321.67 371.199 1321.45 371.483 1321.5 371.789L1321.88 374.422C1321.92 374.728 1322.21 374.94 1322.51 374.896L1336.47 372.885C1336.77 372.841 1336.99 372.557 1336.94 372.251L1336.56 369.618C1336.52 369.312 1336.23 369.1 1335.93 369.144Z" fill="#0F70E5"/>
<path d="M1154.7 373.026L1140.56 370.761C1140.32 370.724 1140.1 370.883 1140.06 371.118L1139.61 373.981C1139.57 374.216 1139.73 374.436 1139.96 374.474L1154.1 376.739C1154.34 376.776 1154.56 376.617 1154.6 376.382L1155.05 373.519C1155.09 373.284 1154.93 373.064 1154.7 373.026Z" fill="#0F70E5"/>
<path d="M1313.15 372.239L1299.61 373.662C1299.17 373.708 1298.85 374.102 1298.9 374.541L1299.13 376.729C1299.17 377.169 1299.57 377.488 1300.01 377.441L1313.55 376.018C1313.99 375.972 1314.31 375.578 1314.26 375.138L1314.03 372.951C1313.99 372.511 1313.59 372.192 1313.15 372.239Z" fill="#0F70E5"/>
<path d="M1177.26 375.605L1163.04 374.135C1162.78 374.109 1162.55 374.296 1162.52 374.554L1162.22 377.459C1162.19 377.717 1162.38 377.948 1162.64 377.975L1176.86 379.445C1177.12 379.471 1177.35 379.284 1177.38 379.026L1177.68 376.121C1177.71 375.863 1177.52 375.632 1177.26 375.605Z" fill="#0F70E5"/>
<path d="M1290.76 374.5L1276.72 375.531C1276.44 375.551 1276.23 375.796 1276.25 376.077L1276.45 378.849C1276.47 379.13 1276.72 379.341 1277 379.321L1291.04 378.289C1291.32 378.269 1291.53 378.024 1291.51 377.743L1291.31 374.971C1291.29 374.69 1291.04 374.479 1290.76 374.5Z" fill="#0F70E5"/>
<path d="M1268.17 376.063L1253.91 376.661C1253.64 376.672 1253.44 376.895 1253.45 377.16L1253.57 379.978C1253.58 380.243 1253.8 380.448 1254.07 380.437L1268.33 379.839C1268.6 379.828 1268.8 379.604 1268.79 379.34L1268.67 376.522C1268.66 376.257 1268.44 376.051 1268.17 376.063Z" fill="#0F70E5"/>
<path d="M1200.07 376.874L1185.5 376.289C1185.36 376.283 1185.24 376.395 1185.23 376.538L1185.1 379.776C1185.1 379.919 1185.21 380.04 1185.35 380.046L1199.92 380.631C1200.06 380.637 1200.18 380.525 1200.19 380.382L1200.32 377.144C1200.32 377.001 1200.21 376.88 1200.07 376.874Z" fill="#0F70E5"/>
<path d="M1239.69 381H1230.94L1230.8 378.07C1230.79 377.934 1230.81 377.799 1230.86 377.672C1230.91 377.545 1230.98 377.428 1231.07 377.33C1231.16 377.232 1231.28 377.154 1231.4 377.1C1231.52 377.047 1231.66 377.02 1231.79 377.02L1244.99 376.95C1245.26 376.95 1245.51 377.055 1245.7 377.243C1245.89 377.43 1246 377.685 1246 377.95V379.75C1246 380.007 1245.9 380.254 1245.73 380.44C1245.55 380.626 1245.31 380.737 1245.05 380.75L1239.69 381Z" fill="#0F70E5"/>
<path d="M1222.69 381H1213.94C1212.44 380.58 1210.94 380.58 1209.44 381H1208.19L1208.03 378.07C1208.02 377.934 1208.04 377.797 1208.09 377.669C1208.13 377.541 1208.21 377.423 1208.3 377.324C1208.39 377.224 1208.51 377.145 1208.63 377.091C1208.76 377.037 1208.89 377.01 1209.03 377.01L1222.18 377.02C1222.42 377.02 1222.65 377.107 1222.83 377.265C1223.01 377.423 1223.13 377.641 1223.17 377.88C1223.33 378.967 1223.17 380.007 1222.69 381Z" fill="#0F70E5"/>
</svg>
